<?xml version="1.0" standalone="no"?>
<!DOCTYPE svg PUBLIC "-//W3C//DTD SVG 20010904//EN"
 "http://www.w3.org/TR/2001/REC-SVG-20010904/DTD/svg10.dtd">
<svg version="1.0" xmlns="http://www.w3.org/2000/svg"
 width="200.000000pt" height="195.000000pt" viewBox="0 0 200.000000 195.000000"
 preserveAspectRatio="xMidYMid meet">

<g transform="translate(0.000000,195.000000) scale(0.100000,-0.100000)"
fill="#000000" stroke="none">
<path d="M555 1887 c-2 -7 -21 -102 -41 -212 -20 -110 -40 -209 -44 -220 -4
-11 -32 -33 -61 -47 -107 -53 -306 -146 -327 -152 -29 -10 -28 -24 7 -66 104
-126 251 -315 251 -324 0 -13 -17 -94 -64 -295 -20 -85 -36 -157 -36 -159 0
-3 102 -2 228 1 l227 6 103 -138 c57 -76 117 -159 135 -185 18 -25 35 -46 38
-46 3 0 42 48 87 108 44 59 107 141 139 182 l59 75 227 -4 c125 -2 227 -2 227
1 0 2 -23 102 -50 223 -27 121 -50 225 -50 231 0 7 41 63 90 126 50 62 99 124
108 137 9 13 22 28 27 35 6 6 22 26 37 45 l26 34 -206 96 c-202 94 -206 97
-214 131 -4 19 -24 121 -44 225 -20 105 -38 192 -40 195 -3 2 -97 -43 -209
-100 l-205 -104 -210 107 c-136 69 -212 102 -215 94z m201 -108 c98 -51 183
-95 187 -99 4 -4 -21 -10 -57 -13 -114 -11 -244 -74 -345 -167 l-44 -40 7 42
c11 69 68 368 71 368 1 0 82 -41 181 -91z m636 35 c18 -103 59 -322 64 -343 4
-20 -7 -13 -61 37 -95 89 -227 149 -365 165 -19 2 21 26 155 94 99 51 184 91
190 89 5 -1 13 -20 17 -42z m-269 -199 c306 -80 497 -395 433 -715 -58 -287
-297 -490 -578 -490 -104 0 -168 15 -265 61 -152 73 -278 231 -318 400 -19 82
-19 216 0 298 50 212 221 391 425 445 73 19 231 20 303 1z m-669 -217 c-4 -7
-17 -29 -30 -48 -12 -20 -34 -69 -49 -110 -26 -68 -28 -88 -29 -207 -1 -73 -4
-129 -7 -125 -4 4 -64 78 -133 165 l-127 158 73 33 c40 19 125 59 188 89 132
64 123 61 114 45z m1234 -78 c159 -75 179 -87 169 -101 -7 -9 -67 -85 -133
-168 l-122 -151 5 83 c8 115 -16 228 -71 340 -24 48 -40 87 -36 85 3 -2 88
-41 188 -88z m-1243 -659 c57 -85 80 -111 159 -170 l64 -49 -200 -7 c-109 -4
-200 -6 -202 -4 -2 2 19 94 45 204 26 110 48 202 49 205 0 3 10 -22 21 -54 11
-33 40 -89 64 -125z m1194 -21 c23 -102 41 -190 41 -197 0 -9 -46 -11 -197 -6
-109 3 -199 7 -201 8 -1 1 23 19 53 39 98 68 180 174 226 293 13 34 27 59 30
55 4 -4 25 -90 48 -192z m-895 -228 c12 -20 127 -37 241 -36 96 0 132 4 180
21 33 12 61 21 62 19 1 -1 -240 -322 -251 -334 -2 -1 -50 59 -106 135 -57 76
-114 153 -128 171 -13 17 -20 32 -14 32 6 0 13 -4 16 -8z"/>
<path d="M587 1814 c-10 -11 -8 -34 3 -34 6 0 10 7 10 15 0 13 4 14 20 5 14
-7 20 -7 20 0 0 5 -4 10 -9 10 -5 0 -16 2 -23 5 -8 3 -17 2 -21 -1z"/>
<path d="M663 1774 c12 -4 16 -12 12 -24 -3 -10 -2 -21 3 -24 5 -3 9 7 8 22
-1 19 -7 27 -21 29 -16 1 -17 1 -2 -3z"/>
<path d="M576 1754 c-3 -8 -1 -24 4 -34 7 -13 7 -21 -1 -25 -19 -13 -31 -58
-17 -67 10 -6 8 -8 -4 -8 -12 0 -18 -8 -18 -25 0 -14 4 -25 10 -25 5 0 7 6 4
13 -3 8 2 19 10 26 8 6 12 21 9 32 -4 13 3 29 17 44 13 14 19 25 13 25 -6 0
-13 9 -16 20 -3 11 -1 20 4 20 5 0 9 5 9 10 0 16 -17 12 -24 -6z"/>
<path d="M615 1760 c3 -5 1 -10 -5 -10 -6 0 -8 -4 -5 -10 4 -6 13 -5 25 2 21
13 17 28 -6 28 -8 0 -12 -4 -9 -10z"/>
<path d="M707 1756 c-3 -7 0 -13 6 -12 7 0 12 -3 12 -9 0 -5 -3 -9 -7 -7 -5 1
-8 -10 -8 -25 l1 -28 19 24 c11 13 20 20 20 17 0 -4 8 -2 18 3 10 5 24 6 31 1
18 -11 6 -40 -16 -40 -13 0 -14 -3 -5 -12 16 -16 42 7 42 38 0 24 -30 41 -51
29 -6 -4 -17 2 -25 14 -17 24 -30 27 -37 7z"/>
<path d="M631 1703 c0 -7 -8 -13 -16 -13 -8 0 -15 -5 -15 -11 0 -6 7 -9 15 -5
10 4 15 -1 15 -15 0 -15 -5 -19 -16 -15 -8 3 -13 2 -9 -3 3 -5 -7 -19 -21 -30
-30 -24 -19 -29 12 -6 36 27 39 15 4 -15 -19 -16 -30 -30 -24 -30 6 0 19 10
30 21 10 12 29 25 42 30 12 5 22 13 22 18 0 6 -7 8 -15 5 -8 -4 -15 -2 -15 4
0 5 6 12 14 15 8 3 20 16 27 29 12 22 12 22 -14 5 -25 -16 -26 -16 -30 6 -2
12 -5 16 -6 10z"/>
<path d="M758 1693 c7 -3 16 -2 19 1 4 3 -2 6 -13 5 -11 0 -14 -3 -6 -6z"/>
<path d="M729 1664 c-7 -9 -22 -20 -34 -24 -12 -6 -14 -9 -5 -9 17 0 65 37 58
44 -3 3 -11 -2 -19 -11z"/>
<path d="M1332 1811 c-10 -6 -8 -10 8 -14 23 -6 23 -28 0 -35 -8 -3 -10 0 -5
8 6 9 3 9 -15 0 -20 -11 -21 -12 -4 -25 16 -11 21 -9 37 11 28 37 13 77 -21
55z"/>
<path d="M1273 1769 c-4 -16 -11 -19 -29 -15 -16 4 -30 0 -43 -13 -11 -11 -23
-15 -28 -10 -5 5 -16 4 -26 -3 -20 -15 -13 -58 10 -58 12 0 12 3 -2 16 -19 20
-4 35 26 27 12 -4 19 0 19 10 0 16 26 30 41 21 5 -3 9 -12 9 -19 0 -9 6 -12
18 -9 12 4 10 0 -7 -16 -16 -13 -28 -17 -34 -11 -5 5 -16 7 -23 4 -8 -3 -21 0
-29 7 -9 8 -15 8 -15 2 0 -11 26 -22 63 -26 12 -1 22 -6 22 -12 0 -5 -6 -8
-12 -8 -7 1 -10 -2 -7 -7 7 -12 34 -11 34 1 0 6 13 8 32 5 26 -5 29 -3 20 8
-7 8 -8 17 -4 22 4 4 -4 4 -18 0 -20 -6 -22 -5 -13 5 6 7 9 27 6 46 -5 29 -2
35 18 43 l24 10 -23 0 c-16 1 -26 -6 -29 -20z"/>
<path d="M1356 1725 c5 -13 -6 -20 -28 -16 -4 0 -5 -6 -1 -14 4 -13 8 -13 22
-3 23 18 30 31 25 40 -9 14 -24 8 -18 -7z"/>
<path d="M1382 1676 c2 -10 -3 -21 -11 -24 -10 -3 -12 0 -8 12 8 21 -2 21 -19
-1 -16 -22 -18 -41 -3 -26 8 8 18 4 36 -13 14 -13 31 -24 37 -24 6 0 1 8 -12
18 -17 13 -20 20 -11 29 8 8 8 16 0 30 -11 17 -11 17 -9 -1z"/>
<path d="M1270 1631 c0 -6 4 -13 10 -16 6 -3 7 1 4 9 -7 18 -14 21 -14 7z"/>
<path d="M1315 1610 c3 -5 8 -10 11 -10 2 0 4 5 4 10 0 6 -5 10 -11 10 -5 0
-7 -4 -4 -10z"/>
<path d="M1350 1575 c0 -8 4 -15 10 -15 5 0 7 7 4 15 -4 8 -8 15 -10 15 -2 0
-4 -7 -4 -15z"/>
<path d="M1395 1570 c-10 -11 -13 -20 -8 -20 13 0 38 29 31 35 -3 3 -13 -4
-23 -15z"/>
<path d="M900 1595 c-16 -19 -15 -71 1 -91 14 -17 51 -18 67 -2 28 28 1 108
-37 108 -10 0 -24 -7 -31 -15z m48 -49 c3 -20 0 -27 -10 -24 -7 3 -14 17 -16
32 -3 20 0 27 10 24 7 -3 14 -17 16 -32z"/>
<path d="M1010 1566 c0 -24 -3 -51 -6 -60 -4 -11 -1 -16 11 -16 9 0 19 9 22
20 3 11 12 20 19 20 20 0 17 28 -3 33 -14 4 -12 5 5 6 46 2 19 41 -29 41 -16
0 -19 -7 -19 -44z"/>
<path d="M773 1560 c-6 -23 -19 -26 -26 -7 -3 9 -7 9 -17 0 -10 -10 -7 -19 19
-48 17 -20 31 -40 31 -45 0 -6 7 -10 16 -10 13 0 15 7 10 31 -3 17 -6 47 -6
65 0 37 -19 46 -27 14z"/>
<path d="M1160 1550 c-26 -26 -35 -66 -20 -85 16 -19 56 -19 63 0 7 16 -8 29
-22 20 -16 -9 -23 13 -11 35 13 23 30 27 30 5 0 -8 7 -15 15 -15 18 0 20 31 3
48 -17 17 -35 15 -58 -8z"/>
<path d="M652 1510 c-24 -20 -22 -43 2 -34 7 3 20 -10 31 -31 11 -19 23 -35
27 -35 18 0 17 23 -2 50 -16 23 -19 34 -11 44 11 14 5 26 -13 26 -6 -1 -21 -9
-34 -20z"/>
<path d="M1264 1478 c-59 -46 -66 -58 -34 -58 13 0 24 -10 31 -27 12 -31 20
-24 44 39 25 68 10 85 -41 46z m19 -33 c-3 -9 -8 -14 -10 -11 -3 3 -2 9 2 15
9 16 15 13 8 -4z"/>
<path d="M584 1459 c-7 -12 64 -89 83 -89 19 0 16 8 -23 56 -38 46 -48 52 -60
33z"/>
<path d="M839 1447 c-186 -68 -299 -229 -299 -428 0 -340 374 -554 655 -375
158 101 241 295 201 469 -34 147 -124 260 -254 319 -95 43 -209 49 -303 15z
m296 -40 c28 -14 69 -39 93 -56 45 -33 123 -142 121 -170 0 -10 -2 -11 -6 -4
-3 10 -9 10 -24 0 -15 -10 -25 -9 -47 3 -24 14 -27 21 -25 60 3 62 -24 90 -86
89 -25 0 -40 -3 -33 -6 6 -2 12 -10 12 -16 0 -7 5 -19 10 -27 9 -13 11 -13 20
0 8 13 11 13 22 1 10 -10 10 -12 1 -7 -16 9 -17 -6 -1 -22 9 -9 9 -12 -1 -12
-7 0 -9 -5 -6 -11 5 -7 -4 -8 -28 -4 -23 5 -43 2 -58 -8 -13 -8 -35 -18 -48
-22 -23 -7 -23 -6 -16 41 10 62 9 84 -5 98 -9 8 -11 0 -10 -34 4 -62 -1 -128
-7 -112 -2 6 -9 12 -14 12 -6 0 -7 -4 -4 -10 3 -5 1 -10 -4 -10 -6 0 -10 -3
-10 -7 4 -25 -2 -33 -18 -25 -21 11 -45 5 -56 -14 -4 -8 -15 -14 -24 -14 -13
0 -12 5 7 25 13 14 20 28 17 32 -4 3 -7 1 -7 -5 0 -7 -6 -12 -13 -12 -8 0 -22
-9 -31 -19 -17 -19 -17 -20 16 -26 18 -3 43 -7 55 -8 12 -2 25 -6 29 -9 3 -4
13 -4 22 -1 15 4 15 3 2 -6 -13 -9 -13 -11 3 -11 12 0 17 8 17 28 0 15 4 33 9
41 8 12 12 11 27 -3 14 -15 15 -19 3 -26 -8 -6 -13 -26 -13 -54 0 -50 -10 -60
-20 -21 -4 14 -12 25 -20 25 -15 0 -39 -24 -31 -32 3 -3 -8 -11 -25 -18 -16
-7 -30 -16 -30 -21 0 -12 5 -11 44 5 26 11 33 11 33 1 0 -7 -5 -11 -11 -9 -6
2 -22 -5 -35 -15 l-25 -19 29 5 c19 4 26 2 21 -5 -5 -8 2 -10 21 -7 15 3 35 1
43 -5 13 -8 10 -14 -18 -38 -18 -16 -39 -29 -45 -29 -7 0 -30 -4 -52 -7 -22
-4 -63 -9 -92 -11 -42 -3 -52 -1 -55 13 -6 26 3 52 18 52 8 0 11 -6 8 -15 -4
-8 -1 -15 5 -15 6 0 11 6 12 13 0 6 5 1 10 -12 5 -13 12 -21 16 -18 3 4 -2 18
-11 33 -16 23 -16 27 -2 37 13 10 3 12 -49 12 -36 0 -65 -2 -65 -5 0 -9 20
-35 20 -26 0 5 7 3 15 -4 12 -10 12 -15 -5 -32 -11 -12 -17 -25 -13 -31 8 -13
-40 3 -49 17 -4 6 -8 16 -8 23 0 6 -5 15 -12 19 -8 5 -9 2 -5 -9 12 -31 -9
-26 -22 5 -13 28 -15 29 -27 14 -6 -9 -15 -13 -18 -8 -3 5 3 17 14 27 19 17
19 35 -1 35 -6 0 -7 -4 -4 -10 3 -5 2 -10 -3 -10 -6 0 -12 15 -14 33 -5 44 15
156 25 140 11 -18 28 -16 21 2 -4 10 0 15 11 15 9 0 13 -4 10 -10 -3 -6 4 -10
18 -10 14 0 30 -7 37 -15 7 -8 22 -15 34 -15 20 0 20 -1 -3 -13 -30 -15 -37
-32 -14 -33 10 -1 26 -5 37 -9 15 -7 17 -5 11 13 -4 13 -2 22 4 22 25 0 8 28
-20 34 -17 3 -28 10 -25 14 3 5 -5 18 -17 28 -22 19 -64 19 -95 0 -20 -12 -14
15 14 63 33 58 84 112 97 104 6 -3 7 -1 3 5 -8 14 53 54 67 45 6 -3 7 -2 4 4
-6 10 44 36 88 47 11 3 63 4 115 2 79 -2 104 -7 145 -29z m22 -109 c-3 -8 -6
-5 -6 6 -1 11 2 17 5 13 3 -3 4 -12 1 -19z m54 2 c13 -10 18 -19 12 -20 -7 0
-13 5 -13 10 0 6 -9 10 -20 10 -11 0 -20 5 -20 10 0 16 16 12 41 -10z m23 -45
c-4 -8 -8 -15 -10 -15 -2 0 -4 7 -4 15 0 8 4 15 10 15 5 0 7 -7 4 -15z m-78
-59 c7 -15 8 -28 2 -34 -12 -12 1 -42 17 -42 24 0 25 -16 5 -59 -21 -42 -46
-57 -37 -21 3 11 1 20 -4 20 -5 0 -9 -12 -9 -27 0 -25 -1 -26 -14 -8 -14 20
-10 52 11 73 7 7 13 17 13 21 0 14 -27 32 -49 34 -12 1 -21 5 -21 10 0 5 8 6
18 3 13 -4 19 -1 19 9 0 9 -6 14 -14 11 -22 -9 -14 10 10 22 33 16 41 14 53
-12z m69 4 c-3 -5 -10 -10 -16 -10 -5 0 -9 5 -9 10 0 6 7 10 16 10 8 0 12 -4
9 -10z m-160 -20 c-3 -5 -11 -10 -16 -10 -6 0 -7 5 -4 10 3 6 11 10 16 10 6 0
7 -4 4 -10z m-380 -19 c3 -6 -3 -9 -14 -8 -11 0 -17 5 -15 9 7 11 22 10 29 -1z
m675 -11 c0 -5 -7 -7 -15 -4 -8 4 -15 8 -15 10 0 2 7 4 15 4 8 0 15 -4 15 -10z
m-80 -20 c11 -11 17 -20 14 -20 -3 0 -17 9 -31 20 -14 11 -21 20 -14 20 6 0
20 -9 31 -20z m-39 -7 c13 -15 12 -15 -8 -4 -24 12 -29 21 -14 21 5 0 15 -7
22 -17z m-135 -18 c-10 -8 -24 -11 -29 -8 -6 4 -2 10 9 14 31 12 40 9 20 -6z
m-31 -25 c17 -8 16 -8 -7 -7 -16 1 -28 5 -28 9 0 10 9 9 35 -2z m273 -1 c48
-16 32 -24 -40 -20 -62 4 -62 4 -33 17 37 16 36 16 73 3z m-278 -29 c7 11 10
6 10 -21 0 -25 -5 -39 -16 -43 -24 -9 -24 -9 -24 37 0 31 3 38 10 27 9 -13 11
-13 20 0z m298 -19 c13 -1 17 -78 4 -97 -4 -5 -22 -9 -40 -8 -29 1 -32 -1 -26
-20 6 -18 5 -19 -9 -8 -16 13 -20 29 -32 108 l-6 41 48 -8 c26 -4 54 -8 61 -8z
m-140 -30 c3 -36 -18 -58 -63 -67 l-35 -6 24 -19 c22 -18 55 -104 43 -115 -10
-10 -27 6 -27 26 0 10 -12 32 -26 47 l-26 28 21 -29 c27 -37 27 -51 -1 -55
-56 -7 -108 0 -108 15 0 6 9 24 21 40 l21 29 -26 -28 c-14 -15 -26 -34 -26
-41 0 -7 -11 -18 -24 -24 l-23 -10 20 41 c34 73 75 117 107 117 30 0 47 14 30
25 -6 4 -7 11 -4 17 5 7 12 4 21 -8 14 -18 16 -18 40 14 31 40 38 40 41 3z
m-608 -105 c0 -16 -18 -31 -27 -22 -8 8 5 36 17 36 5 0 10 -6 10 -14z m223
-56 l14 -20 23 20 c13 11 30 20 39 20 9 0 -1 -11 -21 -25 -20 -14 -43 -25 -50
-25 -8 0 -19 -5 -25 -11 -8 -8 -13 -8 -17 0 -4 6 0 11 8 11 9 0 16 5 16 11 0
6 -9 9 -20 6 -11 -3 -23 -1 -26 4 -3 5 -2 9 3 8 20 -3 34 2 28 11 -12 19 14
10 28 -10z m-167 -24 c0 -14 -5 -21 -9 -17 -4 4 -5 15 -1 24 9 24 12 21 10 -7z
m-31 -5 c3 -5 1 -12 -5 -16 -5 -3 -10 1 -10 9 0 18 6 21 15 7z m235 -22 c0 -4
-11 -6 -24 -5 -13 0 -22 4 -20 8 6 9 44 6 44 -3z m-124 -12 c4 -4 -7 -7 -25
-7 -19 0 -30 4 -26 10 6 10 40 8 51 -3z m-31 -27 c-3 -5 -1 -10 4 -10 6 0 11
6 12 13 0 8 2 8 5 1 3 -7 13 -10 23 -7 10 3 18 -1 18 -9 0 -9 -12 -12 -40 -9
-27 2 -38 0 -33 -8 4 -6 2 -11 -4 -11 -7 0 -10 7 -6 15 3 10 -1 15 -12 16 -11
1 -8 4 8 9 14 4 26 8 28 9 2 1 0 -3 -3 -9z m148 -6 c8 -8 -3 -34 -15 -34 -6 0
-6 6 1 14 9 11 9 15 -1 19 -7 3 -8 6 -2 6 6 1 13 -2 17 -5z m-18 -54 c14 -15
15 -20 4 -20 -8 0 -20 9 -27 20 -7 11 -8 20 -4 20 5 0 17 -9 27 -20z m-89 -5
c-8 -8 -17 -15 -20 -15 -3 0 -3 7 0 15 4 8 13 15 21 15 12 0 12 -2 -1 -15z
m210 -10 c-3 -8 0 -15 6 -15 6 0 9 -2 6 -5 -3 -3 -12 -3 -21 1 -13 5 -14 9 -4
20 16 18 20 17 13 -1z m114 5 l-25 -8 27 -1 c41 -2 45 -21 4 -21 -23 0 -36 5
-36 13 0 19 10 27 34 26 18 -1 18 -2 -4 -9z m-272 -14 c-7 -8 -14 -10 -16 -5
-2 5 -8 9 -13 9 -6 0 -7 -5 -3 -12 4 -7 3 -8 -5 -4 -17 11 -3 26 25 26 21 0
23 -2 12 -14z m92 -24 c0 -15 -2 -15 -10 -2 -13 20 -13 33 0 25 6 -3 10 -14
10 -23z m-30 -12 c0 -5 -4 -10 -10 -10 -5 0 -10 5 -10 10 0 6 5 10 10 10 6 0
10 -4 10 -10z"/>
<path d="M1021 1393 c-1 -13 -6 -23 -12 -23 -6 0 -9 7 -5 15 3 9 0 15 -9 15
-22 0 -19 -40 3 -41 40 -2 77 -11 83 -21 9 -14 17 12 11 35 -4 17 -5 17 -25 0
-19 -17 -20 -17 -14 0 4 11 1 17 -7 17 -8 0 -17 6 -19 13 -3 6 -6 2 -6 -10z"/>
<path d="M921 1385 c-1 -16 -3 -17 -11 -5 -5 8 -12 12 -15 9 -8 -8 5 -39 16
-39 13 0 22 26 16 42 -3 7 -6 4 -6 -7z"/>
<path d="M940 1380 c0 -11 7 -20 15 -20 8 0 15 9 15 20 0 11 -7 20 -15 20 -8
0 -15 -9 -15 -20z"/>
<path d="M862 1381 c-16 -9 -5 -41 14 -41 15 0 16 6 6 32 -4 11 -12 14 -20 9z"/>
<path d="M780 1140 c0 -5 5 -10 11 -10 5 0 7 5 4 10 -3 6 -8 10 -11 10 -2 0
-4 -4 -4 -10z"/>
<path d="M631 1121 c-19 -12 -23 -41 -6 -41 15 0 45 27 45 41 0 11 -21 11 -39
0z"/>
<path d="M670 1100 c0 -5 7 -10 15 -10 8 0 15 5 15 10 0 6 -7 10 -15 10 -8 0
-15 -4 -15 -10z"/>
<path d="M888 1083 c7 -3 16 -2 19 1 4 3 -2 6 -13 5 -11 0 -14 -3 -6 -6z"/>
<path d="M940 1070 c0 -5 5 -10 10 -10 6 0 10 5 10 10 0 6 -4 10 -10 10 -5 0
-10 -4 -10 -10z"/>
<path d="M606 1061 c-4 -6 0 -11 8 -11 9 0 16 -4 16 -9 0 -13 -26 -32 -33 -24
-4 3 -7 2 -7 -4 0 -6 13 -16 30 -23 16 -7 27 -16 24 -21 -3 -5 -1 -9 5 -9 9 0
31 31 31 44 0 3 -8 6 -18 6 -10 0 -21 3 -25 6 -10 10 4 34 20 34 8 0 11 5 8
10 -5 8 -11 8 -19 1 -9 -7 -16 -7 -23 0 -8 8 -13 8 -17 0z"/>
<path d="M827 1049 c6 -20 21 -34 29 -26 7 7 -7 35 -21 40 -9 4 -11 -1 -8 -14z"/>
<path d="M875 1040 c3 -5 8 -10 11 -10 2 0 4 5 4 10 0 6 -5 10 -11 10 -5 0 -7
-4 -4 -10z"/>
<path d="M870 979 c0 -5 5 -7 10 -4 6 3 10 8 10 11 0 2 -4 4 -10 4 -5 0 -10
-5 -10 -11z"/>
<path d="M978 933 c6 -2 18 -2 25 0 6 3 1 5 -13 5 -14 0 -19 -2 -12 -5z"/>
<path d="M1280 985 c0 -5 5 -17 11 -25 8 -11 12 -12 16 -2 2 6 9 12 14 12 6 0
7 -5 3 -11 -3 -6 6 -3 21 7 30 20 29 21 -27 26 -22 2 -38 0 -38 -7z"/>
<path d="M1080 909 c0 -5 5 -7 10 -4 6 3 10 8 10 11 0 2 -4 4 -10 4 -5 0 -10
-5 -10 -11z"/>
<path d="M1110 836 c14 -8 27 -12 29 -10 6 6 -1 11 -29 18 l-25 7 25 -15z"/>
<path d="M1343 1404 c-24 -20 -43 -39 -43 -42 1 -4 10 -18 21 -31 15 -18 23
-21 31 -13 8 8 8 15 -1 26 -10 12 -7 20 21 45 22 20 30 33 23 40 -7 7 -24 -2
-52 -25z"/>
<path d="M520 1390 c-22 -40 26 -80 58 -48 6 6 15 8 19 4 4 -4 0 -12 -10 -17
-9 -6 -17 -14 -17 -19 0 -15 36 -12 50 5 27 33 -13 80 -50 58 -10 -7 -22 -9
-24 -4 -3 5 1 11 9 15 22 8 18 26 -5 26 -10 0 -24 -9 -30 -20z"/>
<path d="M1402 1329 c-36 -26 -56 -59 -36 -59 10 0 94 63 94 71 0 20 -21 16
-58 -12z"/>
<path d="M465 1290 c-8 -16 -15 -31 -15 -34 0 -3 22 -17 49 -31 35 -17 52 -21
57 -13 4 6 0 16 -9 23 -25 18 -21 26 8 19 19 -5 25 -2 25 10 0 8 -11 18 -25
22 -13 3 -29 12 -36 20 -18 22 -37 17 -54 -16z m41 -27 c-10 -10 -19 5 -10 18
6 11 8 11 12 0 2 -7 1 -15 -2 -18z"/>
<path d="M1425 1270 c-40 -19 -55 -48 -22 -42 10 2 25 -2 32 -8 18 -15 36 -4
29 18 -5 16 -5 16 9 0 15 -19 37 -24 37 -8 0 19 -24 60 -34 59 -6 0 -29 -9
-51 -19z"/>
<path d="M426 1188 c-12 -47 -7 -54 45 -67 27 -7 52 -12 54 -10 2 2 6 21 10
42 8 40 -12 55 -22 17 -3 -11 -10 -20 -15 -20 -5 0 -6 9 -3 20 5 14 2 20 -9
20 -9 0 -16 -7 -16 -15 0 -8 -5 -15 -10 -15 -6 0 -8 11 -4 25 4 18 2 25 -9 25
-8 0 -17 -10 -21 -22z"/>
<path d="M1432 1178 c-7 -7 -12 -21 -12 -33 0 -46 58 -61 101 -26 21 16 22 22
11 45 -9 21 -18 26 -50 26 -21 0 -43 -5 -50 -12z m69 -33 c0 -5 -12 -11 -26
-13 -18 -2 -25 1 -25 13 0 12 7 15 25 13 14 -2 26 -7 26 -13z"/>
<path d="M407 1104 c-13 -13 -7 -22 21 -32 l27 -10 -27 -7 c-40 -10 -38 -38 2
-31 17 3 44 9 60 12 46 9 40 38 -11 53 -23 7 -46 14 -53 17 -7 3 -15 1 -19 -2z"/>
<path d="M1430 1065 c0 -8 9 -15 20 -15 26 0 26 -20 0 -27 -36 -9 -16 -26 33
-28 54 -3 70 10 65 52 -3 27 -6 28 -60 31 -47 2 -58 0 -58 -13z m90 -30 c0 -8
-4 -15 -10 -15 -5 0 -10 7 -10 15 0 8 5 15 10 15 6 0 10 -7 10 -15z"/>
<path d="M453 1002 c-38 -2 -53 -7 -53 -18 0 -10 14 -14 54 -14 51 0 79 13 60
28 -5 4 -33 6 -61 4z"/>
<path d="M1430 963 c0 -7 7 -13 15 -13 22 0 18 -17 -5 -23 -11 -3 -20 -12 -20
-21 0 -12 11 -16 45 -17 25 -1 50 -2 57 -3 6 -1 13 5 16 12 2 7 -5 12 -17 12
-12 0 -21 5 -21 10 0 6 9 10 21 10 14 0 19 5 17 18 -4 22 -108 36 -108 15z"/>
<path d="M453 937 c-27 -6 -43 -16 -43 -25 0 -9 7 -13 20 -9 24 6 25 -1 3 -25
-24 -27 -11 -31 52 -17 53 12 73 37 24 31 l-23 -2 22 23 c35 37 21 43 -55 24z"/>
<path d="M1414 869 c-9 -15 5 -28 39 -38 18 -5 40 -12 51 -16 14 -6 17 -4 15
10 -4 19 -96 58 -105 44z"/>
<path d="M485 824 c-40 -20 -49 -30 -36 -38 6 -4 24 0 40 9 35 17 51 19 51 5
0 -6 -16 -18 -35 -27 -35 -17 -42 -27 -27 -37 13 -8 87 38 90 57 4 22 -15 47
-37 47 -9 0 -29 -7 -46 -16z"/>
<path d="M1399 823 c-1 -5 -2 -13 -3 -20 0 -7 -10 -19 -21 -27 -24 -17 -24
-18 43 -38 49 -15 53 -15 62 1 7 14 1 26 -28 54 -37 37 -51 44 -53 30z m36
-53 c3 -5 1 -10 -4 -10 -6 0 -11 5 -11 10 0 6 2 10 4 10 3 0 8 -4 11 -10z"/>
<path d="M567 681 c-6 -24 12 -41 33 -32 18 7 24 45 5 37 -7 -2 -17 0 -22 5
-7 7 -12 3 -16 -10z"/>
<path d="M1324 661 c2 -24 27 -41 42 -27 7 7 8 15 3 22 -5 6 -6 13 -3 16 2 3
-6 6 -19 6 -16 0 -24 -6 -23 -17z"/>
<path d="M675 585 c-28 -48 -26 -78 4 -51 12 11 21 12 27 6 15 -15 39 -3 52
24 9 20 7 27 -12 45 -32 30 -41 27 -71 -24z m55 -5 c0 -5 -4 -10 -10 -10 -5 0
-10 5 -10 10 0 6 5 10 10 10 6 0 10 -4 10 -10z"/>
<path d="M1208 614 c-16 -8 -28 -17 -28 -21 0 -10 50 -93 56 -93 3 0 18 7 34
15 19 10 27 20 24 30 -7 17 -20 20 -29 5 -3 -5 -11 -10 -17 -10 -6 0 -3 9 6
19 19 21 8 34 -21 25 -17 -5 -17 -5 0 6 17 11 24 40 10 40 -5 -1 -20 -8 -35
-16z"/>
<path d="M1092 568 c-20 -20 -14 -67 12 -93 27 -27 50 -25 67 7 16 30 -6 49
-26 22 -13 -16 -16 -17 -25 -4 -17 25 -11 40 15 40 30 0 33 15 6 30 -25 13
-34 13 -49 -2z"/>
<path d="M785 540 c-22 -43 -6 -89 33 -90 22 0 52 39 52 68 0 58 -59 73 -85
22z m55 -17 c0 -30 -17 -50 -31 -36 -8 8 -8 16 0 32 14 26 31 27 31 4z"/>
<path d="M901 490 l-2 -60 35 0 c40 0 51 24 15 33 -19 5 -20 10 -14 46 6 36 4
41 -12 41 -17 0 -20 -8 -22 -60z"/>
<path d="M1000 536 c0 -48 14 -106 26 -106 15 0 18 36 8 89 -6 30 -34 45 -34
17z"/>
<path d="M338 1329 c-10 -5 -18 -17 -18 -26 0 -13 -3 -14 -11 -6 -14 14 -59
-11 -59 -33 0 -10 -8 -12 -29 -8 -20 4 -30 1 -34 -10 -4 -9 -12 -14 -19 -11
-7 3 -19 1 -26 -4 -12 -7 -12 -12 -1 -30 8 -11 20 -21 27 -21 10 0 10 4 -2 16
-9 8 -14 20 -10 25 3 5 15 -2 26 -17 14 -17 17 -28 10 -33 -19 -11 3 -31 31
-29 27 2 35 12 18 23 -5 3 -12 1 -16 -5 -11 -18 -26 -10 -20 11 4 13 0 28 -11
42 -10 12 -12 16 -4 10 18 -17 38 -17 22 -1 -19 19 -14 25 18 24 33 -1 36 -6
18 -25 -11 -10 -8 -10 14 0 26 11 26 13 10 26 -16 12 -16 14 2 28 23 17 26 18
45 6 19 -12 -3 -49 -37 -63 -25 -10 -26 -11 -7 -18 11 -5 14 -9 8 -9 -12 -1
-19 -31 -7 -31 9 0 34 28 34 38 0 5 7 23 16 40 8 18 13 36 10 41 -4 5 0 12 6
14 10 4 10 6 1 6 -18 1 -16 21 2 21 8 0 15 5 15 10 0 12 0 12 -22 -1z"/>
<path d="M360 1291 c0 -25 6 -27 13 -6 4 8 2 17 -3 20 -6 4 -10 -3 -10 -14z"/>
<path d="M320 1189 c0 -5 5 -7 10 -4 6 3 10 8 10 11 0 2 -4 4 -10 4 -5 0 -10
-5 -10 -11z"/>
<path d="M331 1154 c0 -11 3 -14 6 -6 3 7 2 16 -1 19 -3 4 -6 -2 -5 -13z"/>
<path d="M276 1134 c-3 -9 -11 -12 -18 -8 -8 5 -9 2 -5 -9 4 -12 1 -17 -9 -17
-10 0 -14 6 -11 14 4 10 1 13 -9 9 -7 -3 -14 -9 -14 -13 0 -14 29 -32 41 -24
9 5 10 0 6 -16 -6 -25 7 -50 26 -50 7 0 7 4 -1 12 -7 7 -12 28 -12 48 0 22 3
30 8 22 6 -8 9 -2 9 18 0 34 -2 37 -11 14z"/>
<path d="M308 1075 c7 -13 7 -27 1 -38 -6 -10 -6 -17 -1 -17 18 0 22 44 6 60
-15 14 -15 13 -6 -5z"/>
<path d="M1590 1325 c0 -9 6 -12 15 -9 9 4 15 0 15 -9 0 -9 5 -19 11 -23 8 -4
9 1 4 17 -11 36 -45 54 -45 24z"/>
<path d="M1650 1306 c0 -2 13 -18 29 -35 18 -19 35 -29 45 -25 8 3 21 0 29 -7
11 -11 10 -16 -7 -33 -13 -13 -16 -21 -8 -24 13 -4 17 -32 5 -32 -3 0 -15 8
-25 17 -15 14 -19 14 -16 3 5 -25 58 -41 58 -18 0 6 14 23 32 38 33 28 32 56
-2 47 -11 -3 -21 1 -24 9 -3 8 -19 14 -35 14 -16 0 -31 6 -34 14 -5 14 -47 42
-47 32z m150 -84 c0 -14 -39 -46 -47 -39 -3 4 0 7 7 7 7 0 10 3 7 7 -8 7 11
33 24 33 5 0 9 -4 9 -8z"/>
<path d="M1575 1290 c3 -5 8 -10 11 -10 2 0 4 5 4 10 0 6 -5 10 -11 10 -5 0
-7 -4 -4 -10z"/>
<path d="M1616 1255 c4 -8 1 -22 -6 -30 -12 -15 -6 -35 11 -35 6 0 7 5 4 10
-4 6 -2 17 4 24 12 14 5 46 -10 46 -4 0 -6 -7 -3 -15z"/>
<path d="M1670 1241 c0 -5 6 -12 13 -14 6 -2 0 -3 -15 -1 -25 3 -28 0 -28 -26
0 -17 4 -29 9 -27 5 1 16 -7 24 -18 14 -19 15 -18 10 8 -3 15 -9 27 -14 27 -5
0 -9 5 -9 10 0 6 6 10 13 9 6 -1 20 1 30 6 17 7 17 8 0 21 -21 16 -33 18 -33
5z"/>
<path d="M1722 1215 c-7 -8 -9 -15 -4 -15 5 0 15 7 22 15 16 19 -1 19 -18 0z"/>
<path d="M1611 1164 c-1 -7 6 -25 14 -40 l15 -29 -3 32 c-1 17 -5 29 -9 27 -3
-2 -9 2 -11 8 -4 8 -6 9 -6 2z"/>
<path d="M1665 1120 c-3 -5 -1 -10 5 -10 19 0 8 -74 -11 -78 -23 -4 -31 24
-13 43 9 8 11 15 6 15 -21 0 -34 -28 -22 -49 21 -39 74 -14 63 29 -4 17 -2 21
8 18 16 -5 45 19 35 30 -4 3 -11 0 -15 -7 -5 -7 -14 -10 -20 -7 -6 4 -9 12 -6
17 4 5 -1 9 -9 9 -8 0 -18 -4 -21 -10z"/>
<path d="M346 699 c-13 -19 -13 -24 0 -44 14 -21 14 -24 -3 -28 -14 -4 -13 -5
5 -6 12 0 22 -5 22 -10 0 -5 9 -11 20 -14 21 -5 23 -26 5 -39 -16 -12 -25 -9
-19 6 4 10 -2 12 -20 9 -28 -6 -36 -39 -15 -60 9 -9 7 -11 -8 -7 -15 4 -22 0
-26 -17 -3 -12 -4 -26 -1 -31 7 -12 34 -10 34 3 0 5 -4 7 -10 4 -5 -3 -10 3
-10 14 0 21 15 29 22 12 2 -4 11 -5 21 -2 17 6 16 8 -3 28 -25 28 -27 47 -2
35 9 -5 33 -8 52 -6 l35 4 -35 -13 c-31 -12 -32 -14 -12 -19 12 -4 25 -2 28 3
8 14 37 10 62 -9 l23 -18 -25 -13 c-32 -18 -59 -8 -51 18 5 16 -1 14 -26 -10
-22 -20 -35 -26 -39 -18 -5 7 -10 8 -14 1 -11 -18 26 -23 44 -7 13 12 20 13
25 5 5 -8 22 -10 46 -7 22 3 39 1 39 -4 0 -5 9 -9 19 -9 38 0 30 42 -16 88
-45 43 -71 59 -37 21 19 -21 19 -21 -1 -18 -11 3 -21 13 -23 24 -2 11 -8 25
-14 30 -6 6 -7 4 -3 -7 11 -29 -4 -21 -24 13 -10 17 -22 29 -25 27 -4 -2 -15
9 -23 24 -14 23 -15 29 -3 43 13 16 15 15 32 -5 12 -14 18 -17 18 -8 0 17 -20
38 -36 38 -7 0 -20 -10 -28 -21z m188 -222 c-8 -22 -26 -10 -19 13 3 11 0 20
-10 24 -8 3 -15 11 -15 18 0 7 11 1 25 -13 17 -16 24 -31 19 -42z"/>
<path d="M425 626 c17 -13 32 -22 35 -19 6 5 -41 42 -55 43 -5 0 4 -11 20 -24z"/>
<path d="M325 600 c-3 -5 -1 -10 4 -10 6 0 11 5 11 10 0 6 -2 10 -4 10 -3 0
-8 -4 -11 -10z"/>
<path d="M1583 712 c4 -5 0 -15 -8 -22 -8 -7 -15 -18 -15 -24 0 -6 5 -3 11 7
5 9 15 17 21 17 6 0 5 -6 -3 -16 -9 -12 -10 -17 -1 -23 6 -4 13 -18 14 -31 2
-20 -1 -25 -19 -23 -17 2 -21 -1 -16 -14 4 -11 3 -14 -5 -9 -7 4 -12 2 -12 -3
0 -15 13 -14 28 1 8 8 15 9 20 3 4 -6 16 -17 27 -25 20 -14 20 -14 2 7 -12 14
-16 29 -12 43 4 13 0 31 -9 45 -9 14 -12 25 -6 25 14 0 6 43 -10 48 -7 3 -10
0 -7 -6z"/>
<path d="M1550 699 c0 -5 5 -7 10 -4 6 3 10 8 10 11 0 2 -4 4 -10 4 -5 0 -10
-5 -10 -11z"/>
<path d="M1546 643 c-4 -4 -15 -8 -24 -8 -10 0 -16 -7 -16 -17 1 -10 -4 -18
-11 -18 -7 0 -18 -7 -25 -15 -9 -10 -9 -15 -1 -15 6 0 11 4 11 9 0 5 9 11 20
14 11 3 19 11 18 18 -4 16 31 18 52 4 13 -9 13 -8 0 10 -8 11 -15 21 -16 23 0
1 -4 -1 -8 -5z"/>
<path d="M1526 591 c-11 -12 -16 -21 -12 -21 4 0 -6 -12 -23 -26 -17 -14 -28
-30 -25 -36 3 -5 -3 -16 -15 -24 -12 -8 -21 -20 -21 -26 0 -6 11 -1 25 12 21
19 25 21 25 7 0 -10 8 -17 20 -17 13 0 20 6 19 18 0 10 -3 12 -6 5 -2 -7 -9
-13 -13 -13 -14 0 -5 73 9 78 10 3 11 0 5 -9 -6 -12 -5 -12 10 0 9 8 15 20 12
27 -3 7 0 14 6 16 6 2 9 10 7 17 -3 9 -10 6 -23 -8z"/>
<path d="M1457 553 c-4 -3 -7 -11 -7 -17 0 -6 5 -5 12 2 6 6 9 14 7 17 -3 3
-9 2 -12 -2z"/>
<path d="M1568 537 c8 -9 11 -21 7 -27 -3 -5 -2 -10 4 -10 5 0 13 -9 16 -20 4
-13 15 -20 31 -20 19 0 24 5 24 25 0 14 -5 25 -11 25 -5 0 -7 5 -4 10 3 6 -3
11 -14 11 -30 2 -34 3 -51 14 -13 7 -13 6 -2 -8z m67 -48 c12 -19 -5 -23 -22
-6 -16 16 -16 17 -1 17 9 0 20 -5 23 -11z"/>
<path d="M1401 516 c-14 -17 -6 -56 11 -56 6 0 6 6 -2 15 -10 12 -10 18 0 30
7 9 11 18 8 20 -3 3 -11 -1 -17 -9z"/>
<path d="M1534 504 c3 -9 6 -20 6 -25 0 -5 9 -9 20 -9 11 0 20 4 20 10 0 5 -7
7 -15 4 -10 -4 -15 0 -15 15 0 12 -5 21 -11 21 -6 0 -8 -7 -5 -16z"/>
<path d="M817 341 c-7 -27 11 -51 39 -51 14 0 23 -4 19 -10 -3 -6 -3 -19 0
-31 7 -19 8 -20 26 -3 11 9 22 14 26 10 4 -4 1 -11 -6 -16 -8 -4 -11 -15 -8
-24 9 -23 26 -20 20 4 -4 13 0 20 9 20 8 0 20 12 27 26 6 15 14 24 17 21 3 -3
1 -14 -5 -25 -6 -12 -11 -27 -11 -34 1 -7 7 1 14 17 8 17 21 39 30 50 13 17
17 18 26 5 8 -13 10 -13 10 2 0 9 6 19 13 21 6 3 2 6 -10 6 -12 1 -25 6 -28
11 -3 6 -13 10 -21 10 -8 0 -14 -4 -14 -10 0 -6 5 -9 11 -7 6 1 14 -4 16 -10
6 -16 -11 -17 -37 -3 -15 8 -18 7 -15 -2 4 -10 -12 -13 -62 -13 -63 0 -68 2
-71 23 -3 17 2 22 18 22 14 0 20 -5 17 -13 -3 -8 1 -14 8 -14 7 0 10 8 7 19
-6 25 -58 25 -65 -1z m138 -51 c4 -6 4 -18 1 -27 -5 -12 -9 -13 -21 -3 -12 10
-18 10 -30 0 -19 -16 -30 -7 -21 17 6 15 9 15 16 3 8 -12 10 -12 16 3 7 19 29
23 39 7z"/>
<path d="M1080 350 c0 -5 6 -7 14 -4 18 7 31 -15 17 -29 -8 -8 -11 -7 -11 2 0
11 -3 11 -15 1 -9 -7 -14 -19 -11 -26 2 -7 -3 -19 -13 -28 -22 -20 -31 -20
-31 -1 0 20 -16 19 -24 -1 -3 -8 -2 -12 4 -9 6 4 10 -6 10 -23 0 -28 -24 -51
-38 -37 -3 3 0 5 6 5 7 0 12 5 12 11 0 6 -6 9 -14 6 -7 -3 -19 0 -26 6 -10 9
-11 9 -8 -3 3 -8 1 -23 -4 -33 -13 -26 18 -62 39 -45 8 6 12 17 9 24 -3 7 4
16 15 19 12 4 19 15 19 31 0 13 6 24 13 24 16 0 49 33 46 46 -3 20 2 28 10 15
7 -11 11 -9 21 8 9 17 9 26 -1 37 -13 16 -39 19 -39 4z m-97 -193 c-8 -13 -32
13 -26 29 4 12 8 12 18 -3 7 -10 11 -21 8 -26z"/>
<path d="M938 343 c6 -2 18 -2 25 0 6 3 1 5 -13 5 -14 0 -19 -2 -12 -5z"/>
<path d="M1048 343 c7 -3 16 -2 19 1 4 3 -2 6 -13 5 -11 0 -14 -3 -6 -6z"/>
</g>
</svg>
